PathFileType	4	(X/Y/Z)	/Users/niels/Desktop/University/Third Semester/Perception and Action/Exam/Gymnastics Motion Tracking/Code for Gym Tracking/Analyzed Data/Webcam_Backflip/id5_1_baseline_Sports2D/id5_1_baseline_Sports2D_px_person00.trc
DataRate	CameraRate	NumFrames	NumMarkers	Units	OrigDataRate	OrigDataStartFrame	OrigNumFrames
29.31818181818182	29.31818181818182	12	22	m	29.31818181818182	14	44
Frame#	Time	Hip			RHip			RKnee			RAnkle			RBigToe			RSmallToe			RHeel			LHip			LKnee			LAnkle			LBigToe			LSmallToe			LHeel			Neck			Head			Nose			RShoulder			RElbow			RWrist			LShoulder			LElbow			LWrist		
		X1	Y1	Z1	X2	Y2	Z2	X3	Y3	Z3	X4	Y4	Z4	X5	Y5	Z5	X6	Y6	Z6	X7	Y7	Z7	X8	Y8	Z8	X9	Y9	Z9	X10	Y10	Z10	X11	Y11	Z11	X12	Y12	Z12	X13	Y13	Z13	X14	Y14	Z14	X15	Y15	Z15	X16	Y16	Z16	X17	Y17	Z17	X18	Y18	Z18	X19	Y19	Z19	X20	Y20	Z20	X21	Y21	Z21	X22	Y22	Z22
14	0.47751937984496123	0.9874737170503366	-0.7922437447782027	0.0	0.9917887135673974	-0.7950308366895783	0.0	1.0225728161605405	-1.0264977678738763	0.0	1.02029623638583	-1.0842460718625608	0.0	1.0724586875481037	-1.0656260659844397	0.0			0.0	0.995313671358507	-1.080442361101618	0.0	0.9935270286025336	-0.7948143065235661	0.0	0.9562865529131972	-1.0130496739484038	0.0	0.9376158975053583	-1.080663449530178	0.0	1.0266131488928667	-1.0709462673825452	0.0	1.0442537632712328	-1.07809076952107	0.0	0.9168435191160572	-1.0848644880983296	0.0	0.9954308651660156	-0.4765224032066444	0.0	1.0390980735362496	-0.3469965218833522	0.0	1.0538102710974782	-0.42317307334747134	0.0	0.9606395104779436	-0.5168598046872406	0.0	0.9407159642261765	-0.6840041744737236	0.0	0.9517102827514706	-0.8406475577552537	0.0	0.9935962368433989	-0.5191168677913619	0.0	0.9690317871814839	-0.6729341323013176	0.0	0.9925358375457523	-0.8035394803919709	0.0
15	0.5116279069767442	0.9904416113155847	-0.7938092274122713	0.0	0.9951894992036823	-0.7963799114458437	0.0	1.0247767686488714	-1.0283837581530055	0.0	1.0208291919045824	-1.0950714459507584	0.0	1.0724311974131724	-1.065634375286986	0.0			0.0	0.9952759924242155	-1.0805769297410228	0.0	0.9990388411468568	-0.7958145490312569	0.0	0.9633233173722162	-1.0160839055672877	0.0	0.9426914233688416	-1.0816297614998385	0.0	1.0265729933913013	-1.0709191198423074	0.0	1.0441822082643408	-1.0780284744233644	0.0	0.9204525346998553	-1.0840822352036594	0.0	0.9998486951024979	-0.47621661062062376	0.0	1.0431413019713296	-0.3461173571200176	0.0	1.0590047868929648	-0.4224861185757381	0.0	0.9670379656133811	-0.5167455604324944	0.0	0.9489268226708503	-0.6855686909367283	0.0	0.9645902872452088	-0.8436471317137152	0.0	0.997947437659798	-0.5182037975393593	0.0	0.973543050548995	-0.6733409975635316	0.0	0.9982530451744941	-0.8042928505888064	0.0
16	0.5457364341085271	0.9928290163295729	-0.7953058326696777	0.0	0.9977792994577989	-0.7977001493688293	0.0	1.0261718658498182	-1.0303205990199578	0.0	1.020544127359913	-1.1107043905370937	0.0	1.0724135471438163	-1.0656397103436697	0.0			0.0	0.9951958965254171	-1.080634291194082	0.0	1.0042978457862302	-0.7966856437307421	0.0	0.9716461643000541	-1.0198579620059889	0.0	0.9494837593066228	-1.0849980799426746	0.0	1.0265425523686615	-1.0709124681392803	0.0	1.0441494191033784	-1.0779938405070946	0.0	0.9241248970915013	-1.0835836143111948	0.0	1.0045212218223831	-0.4757396734045072	0.0	1.0478114630078048	-0.345224493338305	0.0	1.0646302608379992	-0.4219241873549351	0.0	0.9735604419516161	-0.5162540488217853	0.0	0.958137639823289	-0.6871397721038067	0.0	0.9789829515037757	-0.8465192627889736	0.0	1.0021697676338146	-0.5170497329807144	0.0	0.9790294517869992	-0.6739256605794073	0.0	1.0059924842737702	-0.8057806060704947	0.0
17	0.57984496124031	0.9946948783925098	-0.796593788017123	0.0	0.9997640228358432	-0.7989011633692682	0.0	1.0267004954005206	-1.0325364273548723	0.0	1.0195456494774469	-1.1282613573756417	0.0	1.0724047212017094	-1.0656423781160689	0.0			0.0	0.9951199023990471	-1.0806443040671263	0.0	1.008328759443376	-0.7974176311281328	0.0	0.9811663687374234	-1.0239200523041916	0.0	0.9584970726316017	-1.0916599259859114	0.0	1.0265243351285256	-1.0709160719204063	0.0	1.0441414797529007	-1.077979970131958	0.0	0.9276867523455866	-1.0833365266062878	0.0	1.0092327295513266	-0.4751240290922264	0.0	1.0529166762046296	-0.3444082531009669	0.0	1.070449217595388	-0.4215707509470215	0.0	0.9800625785377838	-0.5156131491784831	0.0	0.9685369667565785	-0.6890169151974375	0.0	0.9951538500769315	-0.8494061430351604	0.0	1.0055891468490197	-0.5156897375257623	0.0	0.984915829345187	-0.6748535336480496	0.0	1.0153219550274513	-0.8081289172192911	0.0
18	0.613953488372093	0.9962215260897977	-0.7975705622024808	0.0	1.0015108014582048	-0.7998333108014033	0.0	1.026588442650044	-1.0351273277448814	0.0	1.0182170645519082	-1.1436012636084676	0.0	1.0724019193813616	-1.0656432250079815	0.0			0.0	0.9950661063093238	-1.0806320696862983	0.0	1.0104293796442414	-0.7980225305357352	0.0	0.991367509506575	-1.0277692974966186	0.0	0.9697311616308926	-1.1022158514749938	0.0	1.0265160792810335	-1.0709229368056081	0.0	1.0441459406481473	-1.0779784134995982	0.0	0.9307967083874209	-1.083196550958025	0.0	1.0137876842138278	-0.4744388747682231	0.0	1.0581961371871025	-0.3436766329960611	0.0	1.0761777962908785	-0.4214024893619549	0.0	0.9864661081151185	-0.5150722642577064	0.0	0.980170371878264	-0.6912591809792542	0.0	1.0131955582952799	-0.852213697856924	0.0	1.0076670712602611	-0.5142219215355623	0.0	0.9907152094825455	-0.6761747549799563	0.0	1.0261816600478557	-0.811109472096284	0.0
19	0.648062015503876	0.9976443051193882	-0.7982062830698258	0.0	1.00340697105809	-0.8003453780782278	0.0	1.0263336246048618	-1.037749023014871	0.0	1.0173209216260648	-1.1539434848415537	0.0	1.072402360318339	-1.0656430917282154	0.0			0.0	0.9950359889244685	-1.0806139526975571	0.0	1.010521939431941	-0.7985213014901787	0.0	1.0012612132868075	-1.0308723701127274	0.0	0.9822376646740032	-1.1162450483299802	0.0	1.026514163114159	-1.0709292955889382	0.0	1.044154316741003	-1.077982360012184	0.0	0.9331064729576313	-1.0830831306304032	0.0	1.0181001244664432	-0.47376203499172637	0.0	1.063364490447776	-0.34297297701550433	0.0	1.081566253428615	-0.42132957934499443	0.0	0.9927385314611438	-0.5148174320307362	0.0	0.9929323373810083	-0.6936360792301937	0.0	1.0328954745693002	-0.8544705220361101	0.0	1.0082256512898973	-0.5128047921219994	0.0	0.9963193205858325	-0.6776899004691472	0.0	1.0386064763435447	-0.8141309756978862	0.0
20	0.6821705426356589	0.999151072384038	-0.7985560825522179	0.0	1.0056706520684546	-0.8003957171466611	0.0	1.0263970222819667	-1.0397513121280544	0.0	1.0176604653380463	-1.1588545036002578	0.0	1.0724040208966241	-1.0656425897937065	0.0			0.0	0.9950237724526005	-1.0805982957046185	0.0	1.0091634438627282	-0.7989588222870662	0.0	1.0097511423913992	-1.0327846810649879	0.0	0.9944050209756323	-1.1312696435904548	0.0	1.0265153809998202	-1.0709337297187222	0.0	1.044162048987138	-1.0779875133794485	0.0	0.9345040060615283	-1.0829964117449182	0.0	1.0222082421097904	-0.47314535888995823	0.0	1.0682009859824348	-0.3422409804571979	0.0	1.086475247983938	-0.4212498594255194	0.0	0.9988558783550562	-0.514926220220508	0.0	1.0065527211858065	-0.6958244358262792	0.0	1.0538423670230281	-0.8555229133434621	0.0	1.0076483153030131	-0.5116396576631983	0.0	1.0020771790136174	-0.679081475924763	0.0	1.052551905739978	-0.8165281560037365	0.0
21	0.7162790697674418	1.00086163412825	-0.7986949024866048	0.0	1.0083026545865332	-0.8000960618544639	0.0	1.0269326458004346	-1.0406481110751613	0.0	1.0194781168830132	-1.1592026115009206	0.0	1.072405736885738	-1.06564207111045	0.0			0.0	0.9950222417680443	-1.0805878787888665	0.0	1.0073264742527641	-0.7993836258161426	0.0	1.0162704833079554	-1.0333791981255087	0.0	1.0049585606382514	-1.1433985563821398	0.0	1.0265175640161335	-1.0709361729266904	0.0	1.0441674291291942	-1.0779917744510519	0.0	0.9351478846451285	-1.0829441138421059	0.0	1.0262082797394587	-0.47261055284672926	0.0	1.0725837333828394	-0.34144180652278705	0.0	1.0908998226812199	-0.42108115327597884	0.0	1.0047385069907386	-0.5153778131114412	0.0	1.0206377698245417	-0.6975869605605436	0.0	1.075654736947666	-0.8548696177169983	0.0	1.0068721980885664	-0.5109567645038822	0.0	1.0085563692414372	-0.6801283471811355	0.0	1.0679665002125929	-0.8178897442762009	0.0
22	0.7503875968992249	1.0028331946061249	-0.7986543610924717	0.0	1.0111251775266927	-0.7996181159692692	0.0	1.0278537159741845	-1.0404688211132804	0.0	1.0223685567523366	-1.1560355023922997	0.0	1.072407012738468	-1.065641685464968	0.0			0.0	0.9950255352045511	-1.0805824356889717	0.0	1.0061552116095704	-0.7997711581656582	0.0	1.0209823986871103	-1.0329663084465732	0.0	1.0134942675085612	-1.1495936512360585	0.0	1.026519556416069	-1.0709371350499008	0.0	1.0441703866431042	-1.0779945174545722	0.0	0.9353069214135068	-1.0829201360533809	0.0	1.030151495924126	-0.47217522735307305	0.0	1.0764965865194458	-0.3405601028306906	0.0	1.094906365834333	-0.42080233654882093	0.0	1.0102152018151132	-0.5160568654120666	0.0	1.0347639448932804	-0.6987133082792837	0.0	1.098092195118726	-0.8524009564021744	0.0	1.0069519525358297	-0.5109451750407529	0.0	1.016193579348381	-0.6807527996296616	0.0	1.0846612254198746	-0.8182270021627126	0.0
23	0.7844961240310078	1.0050629144443848	-0.7984153379695141	0.0	1.0138566169738126	-0.7990333388709164	0.0	1.0290625886422549	-1.039688317994161	0.0	1.025729034211448	-1.1500528803355683	0.0	1.0724077626502138	-1.0656414587929786	0.0			0.0	0.9950299314072957	-1.0805805144513883	0.0	1.0067613126975976	-0.7999700568617992	0.0	1.0244133635214545	-1.0321173309715301	0.0	1.0201098746975985	-1.1486577489851009	0.0	1.0265209325377256	-1.0709372261778176	0.0	1.0441715460926004	-1.0779958936769467	0.0	0.935222903230662	-1.082914318566232	0.0	1.0339693330070756	-0.47185356670190476	0.0	1.0799903992167645	-0.3396532872991867	0.0	1.098473079041673	-0.42045550134291804	0.0	1.0150797528033595	-0.5167504470459274	0.0	1.0485460244951932	-0.6988922430959345	0.0	1.1209269728143596	-0.8483424062710128	0.0	1.0085798859293547	-0.5116090553598434	0.0	1.0251301042841912	-0.6808970683728205	0.0	1.101846027392502	-0.8178650253066971	0.0
24	0.8186046511627907	1.0075366010738003	-0.7979610281158537	0.0	1.016249307579674	-0.7982966972376676	0.0	1.030545658360256	-1.0389013249525951	0.0	1.02912719087319	-1.1417708568364053	0.0	1.072408093110672	-1.0656413589063853	0.0			0.0	0.9950335966454648	-1.0805805654346248	0.0	1.0098558627420493	-0.7998096434057665	0.0	1.0270842687504222	-1.0313746265478292	0.0	1.0250558025196248	-1.140726738287817	0.0	1.026521682952071	-1.0709369331692509	0.0	1.0441716504542997	-1.0779963343560512	0.0	0.9350612214536717	-1.0829175673613516	0.0	1.0374878284135522	-0.4716299932161466	0.0	1.0830175362251109	-0.33886564339564995	0.0	1.1013881332565114	-0.42006743320385664	0.0	1.019189611452115	-0.5172070374830884	0.0	1.0617206580459142	-0.6977769549125792	0.0	1.1436936148932488	-0.8428646328182313	0.0	1.0119910668903862	-0.5127339093487447	0.0	1.0352335525161285	-0.6804440595630257	0.0	1.1177418393268967	-0.8171155332010585	0.0
25	0.8527131782945736	1.0102380820994692	-0.7973367908973595	0.0	1.0182094654883072	-0.7973896062278111	0.0	1.0322485604407223	-1.0385243600532401	0.0	1.0323266610031463	-1.132489317785247	0.0	1.0724081612557657	-1.0656413383085162	0.0			0.0	0.9950359711817107	-1.0805814167974148	0.0	1.015250754170268	-0.7992744189277883	0.0	1.0293021911162483	-1.0310486744470677	0.0	1.0287388222923364	-1.1273804107166252	0.0	1.0265219725958172	-1.0709365606484222	0.0	1.0441712911150824	-1.0779962699368801	0.0	0.9349111051751053	-1.0829236821388217	0.0	1.0405274577284345	-0.4714532301355927	0.0	1.0853631901986642	-0.33834511403493983	0.0	1.1034205686101526	-0.4196014188362305	0.0	1.0225161815412989	-0.5172716602722434	0.0	1.0742952728113049	-0.6952502581722901	0.0	1.1657432288937897	-0.8358739296966359	0.0	1.0169581867640607	-0.5140228947697887	0.0	1.0461210046657687	-0.6792497435727346	0.0	1.129896659746072	-0.8161309535333103	0.0
